<svg id="svg" version="1.1" xmlns="http://www.w3.org/2000/svg" xmlns:xlink="http://www.w3.org/1999/xlink" width="400" height="430.7692307692308" viewBox="0, 0, 400,430.7692307692308"><g id="svgg"><path id="path0" d="M295.891 25.321 C 277.246 35.166,273.773 53.240,288.194 65.374 C 311.816 85.251,360.839 73.986,360.839 48.682 C 360.839 25.154,322.394 11.326,295.891 25.321 M261.091 99.983 L 235.470 100.903 218.450 124.328 C 172.537 187.521,91.863 234.965,30.322 234.965 L 13.986 234.965 13.986 253.077 L 13.986 271.189 21.678 269.942 C 25.909 269.257,38.811 267.263,50.350 265.511 C 74.692 261.816,115.362 249.381,141.586 237.615 L 159.872 229.411 154.388 238.482 C 106.538 317.632,91.194 350.418,93.005 369.644 C 101.036 454.944,255.726 436.730,351.267 339.234 C 380.265 309.642,383.227 303.561,383.181 273.703 L 383.146 250.350 374.876 266.657 C 337.695 339.972,230.181 401.064,196.902 367.786 C 185.896 356.779,186.934 354.557,271.626 207.877 C 303.830 152.102,330.918 104.540,331.822 102.185 C 333.563 97.647,329.598 97.524,261.091 99.983 " stroke="none" fill="#000000" fill-rule="evenodd"></path></g></svg>