<svg xmlns="http://www.w3.org/2000/svg" xmlns:xlink="http://www.w3.org/1999/xlink" id="svg" version="1.1" viewBox="76.11 0.79 248.63 365.21"><g id="svgg"><path id="path0" d="M90.400 2.856 C 84.936 5.391,81.288 8.815,78.529 14.000 L 76.400 18.000 76.192 182.000 C 75.996 336.822,76.063 346.221,77.392 349.947 C 79.288 355.260,85.297 361.705,90.584 364.095 L 94.800 366.000 200.400 366.000 L 306.000 366.000 310.453 363.911 C 315.721 361.441,320.055 357.219,322.576 352.102 L 324.400 348.400 324.607 184.400 C 324.843 -2.426,325.575 16.011,317.604 7.941 C 309.934 0.175,320.218 0.799,200.057 0.808 L 94.800 0.816 90.400 2.856 M310.822 5.208 C 313.753 6.707,316.524 8.918,318.159 11.061 C 323.585 18.176,323.241 5.833,323.010 185.238 L 322.800 347.600 320.425 351.887 C 319.119 354.245,316.639 357.383,314.913 358.860 C 308.499 364.350,315.607 364.046,199.158 363.812 L 94.000 363.600 90.707 361.838 C 85.399 358.999,82.629 356.226,80.241 351.363 L 78.000 346.800 77.788 185.600 C 77.640 73.720,77.836 23.138,78.429 20.275 C 80.036 12.506,85.992 6.012,93.739 3.581 C 96.591 2.686,115.579 2.522,201.657 2.647 L 306.114 2.800 310.822 5.208 M95.292 9.201 C 91.331 10.436,87.061 14.191,85.231 18.048 C 84.136 20.356,84.000 38.567,84.000 183.395 L 84.000 346.148 85.862 349.674 C 87.085 351.990,89.054 354.024,91.599 355.600 L 95.474 358.000 199.439 358.212 L 303.405 358.424 307.644 356.483 C 312.488 354.265,315.453 350.458,316.741 344.800 C 317.941 339.531,317.910 27.122,316.709 21.522 C 315.488 15.831,310.894 10.846,305.354 9.201 C 299.572 7.484,100.799 7.484,95.292 9.201 M288.800 183.200 L 288.800 271.200 200.400 271.200 L 112.000 271.200 112.000 183.200 L 112.000 95.200 200.400 95.200 L 288.800 95.200 288.800 183.200 M238.395 111.099 C 223.169 116.095,227.357 130.546,244.034 130.557 C 257.898 130.566,264.292 119.189,253.858 113.075 C 250.078 110.860,242.195 109.853,238.395 111.099 M231.040 138.999 L 213.681 139.231 209.942 144.803 C 192.671 170.546,163.244 187.972,137.000 187.997 L 134.400 188.000 134.400 194.081 L 134.400 200.162 140.200 199.610 C 152.980 198.392,168.333 194.098,180.390 188.369 C 183.464 186.908,186.053 185.787,186.143 185.877 C 186.233 185.967,181.290 194.671,175.159 205.220 C 160.773 229.972,159.906 233.153,164.848 243.043 C 169.156 251.665,175.630 255.200,187.111 255.200 C 213.150 255.200,240.330 242.289,258.749 221.170 C 266.388 212.411,266.223 212.812,266.535 202.200 C 266.843 191.742,266.598 191.047,264.596 196.685 C 262.970 201.263,256.810 210.852,252.091 216.151 C 237.108 232.975,203.774 244.041,198.388 233.977 C 196.358 230.185,197.415 228.033,222.720 184.444 C 245.704 144.852,249.577 138.010,248.686 138.584 C 248.529 138.685,240.588 138.871,231.040 138.999 " stroke="none" fill="#000000" fill-rule="evenodd"/></g></svg>