<?xml version="1.0" standalone="no"?>
<!DOCTYPE svg PUBLIC "-//W3C//DTD SVG 20010904//EN"
 "http://www.w3.org/TR/2001/REC-SVG-20010904/DTD/svg10.dtd">
<svg version="1.0" xmlns="http://www.w3.org/2000/svg"
 width="736.000000pt" height="360.000000pt" viewBox="0 0 736.000000 360.000000"
 preserveAspectRatio="xMidYMid meet">

<g transform="translate(0.000000,360.000000) scale(0.100000,-0.100000)"
fill="#000000" stroke="none">
<path d="M2038 3536 c-20 -8 -191 -120 -380 -249 -645 -440 -953 -649 -1208
-819 -268 -178 -323 -225 -364 -311 -56 -120 -76 -297 -47 -417 27 -111 47
-134 284 -331 242 -201 325 -272 1026 -869 261 -222 499 -418 530 -437 85 -51
167 -73 277 -73 51 0 117 5 146 11 74 16 182 67 253 122 70 52 31 0 610 827
240 344 441 626 445 628 5 2 16 -10 24 -26 19 -37 74 -85 129 -114 55 -28 182
-36 251 -14 l48 15 -6 -32 c-15 -80 -111 -121 -231 -98 -130 23 -173 11 -224
-65 -17 -26 -31 -51 -31 -54 0 -13 94 -48 172 -64 140 -29 313 -16 422 33 97
43 163 132 186 252 5 28 12 189 15 357 3 169 8 329 11 357 6 54 38 138 60 156
8 6 14 17 14 24 0 20 -204 8 -251 -14 -36 -17 -38 -17 -75 3 -33 18 -57 21
-149 21 -100 0 -115 -3 -165 -27 -30 -15 -64 -34 -76 -43 -19 -14 -43 6 -555
473 -294 268 -593 540 -663 605 -166 151 -221 180 -350 184 -61 2 -103 -2
-128 -11z m205 -171 c32 -8 74 -24 95 -34 20 -11 233 -198 472 -416 239 -219
522 -477 628 -573 142 -130 191 -180 186 -191 -33 -74 -56 -166 -61 -244 -6
-84 -9 -95 -44 -145 l-38 -53 -3 223 c-3 208 -5 226 -25 265 -64 119 -224 171
-471 151 -135 -10 -175 -22 -206 -59 -29 -34 -100 -178 -92 -186 3 -3 49 7
103 22 113 33 255 40 311 16 34 -14 62 -55 62 -89 0 -19 -1 -19 -42 2 -35 17
-61 21 -134 21 -82 -1 -98 -4 -157 -33 -139 -69 -207 -186 -207 -357 l0 -83
-62 -21 c-81 -27 -210 -44 -266 -36 -31 5 -46 13 -53 29 -7 15 -8 154 -2 432
l9 409 27 66 c15 36 27 69 27 73 0 4 -100 6 -222 4 -273 -4 -273 -4 -332 -120
-42 -85 -42 -108 3 -108 16 0 39 -8 51 -18 l23 -19 -9 -429 -9 -429 -34 -73
c-19 -40 -32 -75 -29 -78 3 -3 43 2 89 10 109 19 160 24 419 36 252 12 304 24
350 77 18 20 37 49 42 65 5 15 13 28 16 28 4 0 19 -16 35 -35 15 -19 49 -47
75 -62 44 -26 55 -28 157 -28 105 0 113 2 168 32 l57 31 0 -30 c0 -28 2 -30
26 -24 15 4 40 10 57 13 l31 6 -45 -64 c-25 -35 -144 -203 -265 -374 -122
-171 -264 -373 -318 -450 -54 -77 -114 -155 -134 -173 -134 -122 -337 -130
-516 -21 -28 18 -107 79 -176 138 -131 110 -410 348 -690 585 -91 77 -295 250
-455 384 -360 303 -370 313 -391 375 -27 80 -15 191 30 281 19 39 50 85 68
102 18 17 231 170 473 341 242 170 589 414 770 543 182 128 343 242 360 254
41 29 122 55 170 56 23 0 67 -7 98 -15z m-37 -887 c-20 -69 -25 -159 -31 -508
-5 -357 -4 -388 12 -420 10 -19 31 -41 47 -49 42 -20 186 -15 280 9 44 11 81
18 84 16 2 -3 -6 -24 -19 -48 -37 -68 -64 -75 -289 -87 -278 -15 -359 -21
-409 -28 -36 -5 -43 -3 -39 8 20 51 27 171 33 522 6 441 5 452 -56 477 -16 7
-29 17 -29 22 0 24 46 88 69 97 14 5 100 10 190 10 l163 1 -6 -22z m1850 -179
c28 -7 63 -28 93 -55 51 -46 61 -44 61 11 0 19 8 26 38 34 20 6 52 11 71 11
27 0 32 -3 26 -17 -19 -49 -26 -148 -34 -468 -10 -390 -15 -421 -79 -495 -63
-75 -169 -110 -327 -111 -87 0 -218 19 -246 36 -15 10 3 37 33 50 24 10 47 9
116 -2 97 -16 146 -12 202 17 77 39 110 104 110 218 l0 63 -37 -29 c-52 -40
-93 -52 -180 -52 -167 0 -267 112 -280 315 -21 319 179 538 433 474z m-807
-26 c77 -21 135 -63 155 -113 13 -33 16 -82 16 -280 0 -255 5 -286 47 -296 29
-8 29 -13 0 -55 -27 -40 -63 -54 -169 -64 l-78 -7 0 71 c0 41 -4 71 -10 71 -5
0 -10 -4 -10 -8 0 -4 -22 -33 -50 -64 -134 -150 -361 -138 -447 25 -24 47 -30
189 -9 259 20 71 80 138 154 175 48 24 70 28 137 28 102 0 144 -20 190 -88 33
-49 34 -50 40 -24 4 15 5 67 4 116 -4 95 -16 123 -70 163 -50 38 -228 44 -348
11 l-23 -6 23 36 c29 45 65 58 179 67 107 8 200 2 269 -17z"/>
<path d="M2095 3330 c-12 -4 -26 -14 -32 -21 -9 -12 -73 -496 -73 -553 0 -17
10 -18 153 -11 83 4 154 9 156 11 9 9 -23 545 -33 553 -12 10 -108 31 -134 30
-9 0 -26 -4 -37 -9z"/>
<path d="M2148 1166 l-237 -19 -5 -36 c-3 -20 -20 -164 -37 -321 l-30 -285 23
-15 c12 -8 52 -42 88 -74 94 -85 153 -111 261 -111 81 0 90 2 173 43 48 24 90
50 93 58 5 13 -42 681 -53 751 -3 22 -10 31 -22 30 -9 -1 -124 -11 -254 -21z"/>
<path d="M3930 2204 c-67 -57 -94 -159 -89 -340 4 -102 8 -126 29 -169 45 -90
124 -118 205 -72 39 22 40 24 46 92 11 117 10 398 -2 438 -15 57 -43 77 -105
77 -42 0 -59 -5 -84 -26z m130 -43 c13 -25 15 -89 12 -309 l-2 -173 -34 -14
c-44 -18 -86 -5 -108 33 -60 100 -42 386 28 456 33 32 88 36 104 7z"/>
<path d="M3010 1912 c-107 -56 -121 -274 -24 -351 25 -20 38 -22 88 -19 54 4
63 8 92 42 73 84 72 251 -3 316 -40 36 -99 40 -153 12z m127 -68 c25 -39 29
-125 8 -180 -13 -35 -25 -49 -51 -60 -68 -28 -114 21 -114 121 0 90 39 145
102 145 29 0 41 -6 55 -26z"/>
<path d="M4472 2878 c-15 -15 -16 -35 -1 -40 7 -2 15 -65 22 -161 l11 -158 40
3 c31 2 42 8 44 22 2 10 -1 22 -7 25 -5 4 -15 77 -22 164 l-12 157 -32 0 c-17
0 -36 -5 -43 -12z"/>
<path d="M3524 2872 c-19 -13 -25 -44 -10 -56 16 -12 42 -269 30 -299 -6 -15
4 -17 99 -17 83 0 109 3 121 16 31 31 20 41 -42 36 -71 -5 -80 4 -84 78 l-3
55 40 5 c30 4 41 10 43 25 2 18 -2 20 -42 17 -44 -4 -45 -4 -51 32 -4 20 -5
43 -1 51 7 20 53 19 64 -1 13 -23 50 -9 58 22 4 14 5 26 3 28 -9 7 -215 15
-225 8z"/>
<path d="M5050 2851 c0 -11 5 -23 10 -26 6 -3 10 -16 10 -28 0 -19 -5 -22 -42
-22 -39 0 -45 -3 -61 -35 -20 -40 -16 -124 10 -173 18 -36 55 -54 86 -40 12 6
37 8 56 5 l34 -5 -6 64 c-4 35 -10 112 -13 172 l-7 107 -38 0 c-32 0 -39 -4
-39 -19z m20 -131 c6 -11 10 -48 8 -83 -2 -48 -7 -63 -19 -65 -11 -2 -20 8
-28 29 -12 35 -15 122 -4 132 12 13 32 7 43 -13z"/>
<path d="M6086 2833 c-4 -9 -2 -21 4 -27 5 -5 10 -17 10 -26 0 -13 -7 -15 -29
-12 -39 5 -61 -27 -61 -90 0 -45 24 -126 39 -129 3 -1 32 -3 63 -4 57 -3 57
-3 52 24 -9 54 -22 254 -17 267 4 10 -4 14 -25 14 -19 0 -32 -6 -36 -17z m18
-125 c3 -13 6 -44 6 -70 0 -47 -13 -69 -31 -51 -12 12 -24 107 -16 127 9 24
34 19 41 -6z"/>
<path d="M5517 2829 c-62 -36 -64 -206 -2 -273 39 -42 115 -33 115 14 0 13 -7
15 -29 12 -22 -3 -33 1 -44 19 -21 32 -32 137 -18 172 10 25 41 39 41 17 0
-17 27 -11 34 7 14 34 -54 57 -97 32z"/>
<path d="M6510 2826 c-20 -20 -10 -33 23 -28 29 4 46 17 47 33 0 10 -60 5 -70
-5z"/>
<path d="M3820 2780 c-38 -38 -20 -90 55 -157 26 -23 45 -48 43 -55 -7 -20
-50 -15 -62 7 -6 11 -12 22 -13 24 -5 8 -43 -32 -43 -46 0 -21 61 -53 103 -53
72 0 110 71 69 131 -9 14 -36 42 -59 63 -24 21 -43 43 -43 48 0 5 19 6 45 2
44 -6 45 -6 45 22 0 28 -1 29 -60 32 -49 2 -64 -2 -80 -18z"/>
<path d="M4070 2787 c-83 -41 -75 -213 12 -267 39 -25 92 -21 121 9 28 27 14
42 -33 35 -33 -5 -40 -3 -54 19 -22 33 -32 118 -17 145 13 25 49 29 57 7 8
-21 31 -19 44 4 15 28 14 31 -25 47 -42 17 -72 18 -105 1z"/>
<path d="M4260 2765 c-28 -30 -38 -114 -20 -169 16 -49 62 -86 109 -86 74 0
109 57 96 158 -6 45 -13 62 -40 89 -27 27 -41 33 -77 33 -34 0 -50 -6 -68 -25z
m98 -46 c7 -14 11 -51 10 -89 -3 -52 -6 -65 -20 -68 -24 -5 -38 36 -39 109 -1
83 20 104 49 48z"/>
<path d="M4643 2779 c-24 -24 -14 -35 26 -31 31 3 42 0 55 -19 21 -31 20 -42
-3 -29 -31 16 -58 12 -81 -12 -18 -19 -21 -32 -18 -75 7 -79 49 -115 102 -87
14 7 26 9 26 3 0 -5 13 -9 30 -9 34 0 57 29 37 49 -6 6 -14 48 -18 92 -6 62
-12 87 -27 102 -25 24 -111 35 -129 16z m95 -163 c4 -42 -13 -63 -35 -44 -14
11 -18 70 -6 82 18 18 38 -1 41 -38z"/>
<path d="M5211 2755 c-40 -52 -38 -143 5 -194 31 -37 65 -45 110 -26 45 19 40
40 -11 40 -52 0 -71 29 -35 53 45 31 60 52 60 85 0 61 -90 90 -129 42z m74
-44 c0 -13 -10 -30 -22 -38 -22 -15 -23 -14 -23 10 0 38 11 58 29 55 9 -2 16
-13 16 -27z"/>
<path d="M5668 2753 c-40 -45 -28 -166 19 -203 59 -46 113 -5 113 86 0 90 -28
134 -84 134 -19 0 -40 -8 -48 -17z m73 -54 c19 -66 4 -148 -22 -122 -14 14
-25 114 -15 138 8 23 29 14 37 -16z"/>
<path d="M5823 2754 c-2 -7 0 -21 6 -32 6 -11 11 -56 12 -101 l1 -81 30 0 c31
0 48 24 29 43 -13 13 -15 143 -2 152 18 11 30 -33 32 -114 l2 -81 28 0 c29 0
47 26 29 44 -5 5 -10 34 -10 63 0 30 -6 69 -14 88 -14 34 -15 34 -76 33 -40
-1 -63 -5 -67 -14z"/>
<path d="M6394 2762 c-21 -14 -34 -51 -34 -97 0 -52 9 -72 57 -132 32 -39 33
-42 13 -45 -31 -5 -25 -23 8 -23 21 0 28 5 30 24 3 15 -3 30 -13 37 -15 11
-15 13 4 24 31 16 28 44 -4 36 -20 -5 -27 -2 -34 17 -9 24 -14 65 -12 105 1
21 31 33 31 12 0 -16 20 -11 27 6 11 29 -44 56 -73 36z"/>
<path d="M6505 2753 c-18 -17 -18 -18 16 -23 21 -3 35 -11 37 -22 2 -13 -2
-15 -19 -11 -42 11 -65 -61 -38 -121 10 -22 18 -25 60 -24 27 0 51 3 54 7 7
12 -20 180 -31 190 -20 21 -61 23 -79 4z m61 -117 c6 -26 -1 -46 -16 -46 -12
0 -24 46 -15 59 11 18 24 12 31 -13z"/>
<path d="M6185 2738 c4 -13 10 -55 14 -95 10 -92 20 -105 83 -100 27 2 50 6
53 8 2 3 -1 51 -7 107 -11 95 -13 102 -33 102 -22 0 -22 -2 -17 -91 4 -76 2
-91 -9 -87 -10 3 -17 32 -23 91 l-9 87 -30 0 c-26 0 -28 -3 -22 -22z"/>
<path d="M6644 2735 c-21 -32 -15 -121 9 -159 22 -32 71 -36 87 -7 15 29 12
128 -5 161 -20 40 -67 42 -91 5z m60 -31 c3 -9 6 -38 6 -66 0 -75 -24 -58 -28
20 -3 58 8 82 22 46z"/>
<path d="M6786 2408 c-37 -19 -45 -20 -108 -8 -37 6 -82 9 -100 5 -158 -34
-197 -244 -72 -384 26 -29 45 -53 43 -55 -2 -1 -28 -19 -56 -40 -29 -21 -62
-51 -74 -67 -11 -16 -24 -29 -29 -29 -5 0 -10 98 -12 218 -3 202 -5 220 -25
259 -35 64 -75 87 -159 91 -51 3 -80 0 -102 -12 -39 -20 -42 -20 -42 0 0 12
-6 15 -25 10 -14 -4 -58 -9 -97 -11 -84 -6 -115 -23 -136 -76 -8 -21 -18 -39
-21 -39 -4 0 -30 18 -59 39 -77 59 -153 84 -230 78 -146 -11 -267 -123 -312
-287 l-13 -45 -16 60 c-18 64 -49 127 -78 160 -80 91 -218 126 -356 90 -180
-47 -277 -205 -277 -451 0 -273 133 -419 366 -401 171 13 287 113 340 292 l17
60 12 -45 c24 -93 91 -182 168 -221 115 -59 269 -37 414 61 25 17 47 29 49 27
2 -1 -2 -20 -8 -40 -6 -20 -9 -39 -7 -40 7 -7 203 13 242 24 33 9 42 18 62 62
13 29 25 66 27 82 3 26 0 30 -25 33 l-29 4 4 186 c4 203 10 232 53 232 18 0
26 -7 31 -25 3 -13 4 -122 1 -242 -3 -159 -9 -233 -20 -273 -9 -30 -15 -55
-14 -57 2 -1 54 2 116 7 121 10 155 23 171 66 10 25 24 31 35 14 4 -6 28 -22
55 -35 38 -19 65 -25 115 -25 126 0 208 62 234 177 7 32 9 35 16 18 20 -49 69
-107 113 -132 91 -54 224 -30 326 59 l37 33 -27 38 c-28 42 -20 41 -150 21
-37 -5 -43 -3 -63 21 -11 15 -21 31 -21 36 0 5 33 30 73 57 82 57 125 97 138
130 5 13 16 58 25 100 l16 77 -34 29 c-101 87 -172 110 -257 81 -115 -38 -181
-146 -206 -338 l-6 -48 -22 30 c-12 17 -56 68 -97 113 -41 45 -66 78 -55 74
89 -37 137 -31 167 21 20 34 38 173 22 173 -5 -1 -27 -10 -48 -22z m384 -69
c19 -12 47 -32 61 -46 l26 -24 -14 -67 c-16 -79 -28 -93 -150 -178 -51 -36
-93 -70 -93 -76 0 -5 12 -33 27 -60 41 -76 94 -94 182 -63 43 15 53 8 24 -17
-32 -28 -83 -49 -133 -55 -135 -16 -232 125 -216 314 17 212 160 348 286 272z
m-924 -4 c26 -11 40 -26 57 -62 20 -44 21 -64 22 -254 0 -188 2 -209 19 -228
22 -24 16 -65 -12 -80 -9 -4 -46 -11 -80 -13 l-64 -4 6 38 c14 86 19 455 6
492 -20 62 -73 82 -133 52 -25 -14 -26 -13 -18 2 34 63 122 89 197 57z m508 4
c26 1 28 -1 22 -26 -11 -45 -32 -55 -75 -36 -65 29 -97 28 -116 -1 -10 -15
-15 -35 -11 -49 3 -12 48 -69 100 -125 98 -105 116 -139 116 -212 0 -41 -29
-108 -56 -132 -27 -24 -88 -48 -120 -48 -44 0 -101 21 -136 51 -33 27 -33 28
-16 56 20 34 48 43 48 15 0 -30 55 -72 94 -72 42 0 72 22 86 64 16 50 -4 90
-98 190 -89 94 -107 131 -100 214 4 49 10 60 43 90 l38 35 76 -8 c42 -4 89 -6
105 -6z m-1145 -33 c26 -14 62 -37 80 -52 28 -23 31 -31 26 -63 -21 -129 -35
-146 -210 -251 -66 -40 -121 -73 -123 -75 -2 -2 6 -23 18 -47 57 -111 125
-140 247 -101 39 12 56 14 64 6 9 -9 3 -17 -22 -32 -108 -66 -246 -85 -325
-44 -57 30 -108 90 -134 159 -19 50 -21 74 -18 164 3 92 7 113 34 170 17 36
45 82 63 102 75 86 203 113 300 64z m371 -15 c0 -33 4 -40 23 -43 13 -2 21 -9
18 -18 -12 -49 -22 -212 -19 -318 3 -113 5 -125 25 -142 21 -17 21 -18 5 -51
-19 -37 -41 -46 -125 -48 l-48 -1 5 53 c3 28 8 147 12 263 l6 210 -25 30 c-20
23 -23 34 -15 53 16 44 28 51 84 51 l54 0 0 -39z m-1069 19 c110 -31 189 -173
189 -338 -1 -189 -89 -344 -223 -388 -67 -22 -170 -22 -222 0 -128 55 -194
221 -167 418 23 160 91 255 217 305 37 14 158 16 206 3z m907 -354 c-1 -129
-6 -238 -11 -242 -4 -4 -14 2 -23 15 -45 63 -77 73 -154 46 -71 -25 -107 -20
-147 20 -21 21 -32 40 -27 45 5 5 54 36 109 70 55 33 114 74 132 90 32 31 57
86 68 153 5 31 10 37 31 37 l26 0 -4 -234z m820 -109 c-3 -25 -41 -35 -64 -17
-15 13 -20 91 -7 104 13 13 75 -63 71 -87z"/>
<path d="M7080 2313 c-58 -21 -100 -110 -100 -212 0 -83 6 -86 76 -42 69 44
99 78 115 132 22 71 -32 143 -91 122z m38 -90 c2 -23 -5 -40 -28 -67 -18 -20
-36 -36 -41 -36 -14 0 -11 47 6 87 26 61 58 69 63 16z"/>
<path d="M5444 2251 c-51 -31 -78 -100 -82 -208 -3 -67 -1 -93 8 -93 22 0 142
73 175 106 18 18 38 49 45 69 35 105 -55 182 -146 126z m77 -41 c43 -24 13
-105 -54 -145 -24 -14 -46 -25 -49 -25 -9 0 10 98 26 129 9 16 24 35 33 40 22
13 21 13 44 1z"/>
<path d="M4790 2243 c-88 -28 -120 -114 -120 -318 0 -185 29 -264 101 -279
109 -21 168 118 157 369 -6 138 -29 198 -82 220 -20 8 -37 15 -38 14 -2 0 -10
-3 -18 -6z m55 -76 c26 -40 39 -180 27 -290 -12 -111 -33 -164 -68 -173 -57
-14 -79 47 -78 221 1 178 27 265 79 265 15 0 31 -9 40 -23z"/>
</g>
</svg>
